<?xml version="1.0" encoding="utf-8"?>
<!-- Generator: Adobe Illustrator 24.1.2, SVG Export Plug-In . SVG Version: 6.00 Build 0)  -->
<svg version="1.1" id="barrel_x5F_full" xmlns="http://www.w3.org/2000/svg" xmlns:xlink="http://www.w3.org/1999/xlink" x="0px"
	 y="0px" viewBox="0 0 512 512" style="enable-background:new 0 0 512 512;" xml:space="preserve">
<style type="text/css">
	.st0{fill:#FFFFFF;}
	.st1{fill:#FFC639;}
	.st2{fill:#39FFA0;}
	.st3{fill:#DD1717;}
	.st4{fill:#6D4F13;}
</style>
<g>
	<path class="st0" d="M0,512C0,341.4,0,170.7,0,0c170.6,0,341.2,0,512,0c0,170.6,0,341.3,0,512C341.4,512,170.7,512,0,512z M116,256
		c0,53,0,106,0,159c0,7.2,2,13.8,7.2,18.6c6,5.4,12.4,10.8,19.5,14.4c25.1,13,52.6,17.5,80.3,19.9c40.6,3.4,80.9,1.5,120.4-9.7
		c15-4.2,29.4-9.7,41.4-20.1c7.1-6.2,11.5-13.6,11.5-23.4c-0.1-105.6-0.1-211.3,0-316.9c0-7.9-2.7-14.6-7.9-20.4
		c-8.2-8.9-18.7-14.3-29.8-18.5c-28.3-10.7-57.9-14.7-88-15.9c-27.7-1.1-55.3,0.6-82.5,6.1c-19.1,3.9-37.9,9.1-54.4,20
		c-11.5,7.7-17.9,17.6-17.7,32.4C116.3,153,116,204.5,116,256z"/>
	<path d="M116,256c0-51.5,0.3-103-0.2-154.5c-0.1-14.8,6.2-24.7,17.7-32.4c16.5-11,35.3-16.1,54.4-20c27.2-5.5,54.8-7.2,82.5-6.1
		c30.1,1.2,59.7,5.1,88,15.9c11.1,4.2,21.6,9.6,29.8,18.5c5.3,5.8,8,12.4,7.9,20.4c-0.1,105.6-0.1,211.3,0,316.9
		c0,9.8-4.4,17.2-11.5,23.4c-12,10.4-26.4,15.8-41.4,20.1c-39.5,11.2-79.8,13.1-120.4,9.7c-27.7-2.4-55.2-6.8-80.3-19.9
		c-7.1-3.7-13.5-9-19.5-14.4c-5.2-4.7-7.2-11.4-7.2-18.6C116,361.9,116,309,116,256z M382.9,226c-1,0.4-1.5,0.4-1.9,0.7
		c-15.3,10.7-32.6,16.3-50.6,20.2c-44.8,9.7-89.9,10.3-135,2.7c-22.9-3.9-45.2-9.7-64.7-23.2c-0.3-0.2-0.9,0-1.5,0.1
		c0,26.3,0.3,52.4-0.2,78.6c-0.2,9.3,3.7,15.5,10.9,20.4c15,10.3,32.1,15.3,49.6,18.6c46.3,8.8,92.7,8.9,138.8-1.4
		c15.8-3.5,31.2-8.2,44.6-17.9c5.2-3.8,9.8-8.2,9.9-15.3C382.9,282,382.9,254.3,382.9,226z M129.2,120.1c0,2.1,0,3.4,0,4.7
		c0,23.3,0.5,46.7-0.2,70c-0.3,11.3,4.3,18.9,13.5,23.4c10.7,5.3,21.7,10.1,33.1,13.5c21.3,6.4,43.3,8.6,65.5,9.5
		c34.8,1.3,69.2-1.3,102.7-11.4c11.5-3.5,22.6-8,31.9-15.9c5-4.3,7.3-9.4,7.2-16.2c-0.2-22.7,0-45.3,0-68c0-3,0-6.1,0-10
		c-14.7,10.7-30.4,16.3-46.6,20.3c-37.9,9.3-76.3,11.3-115.1,7.5C189.2,144.4,157.7,138.9,129.2,120.1z M382.9,334.3
		c-13.1,9.4-26.8,14.9-41.2,18.7c-48.6,12.8-97.7,13.8-147.1,5.4c-22.8-3.8-44.8-9.9-64.3-23.1c-0.2-0.1-0.6,0.1-1.2,0.3
		c0,1.6,0,3.2,0,4.9c0,23.5,0.3,47-0.1,70.5c-0.1,8.4,2.8,14.6,9.5,19.1c4.3,2.9,8.7,5.6,13.3,7.9c15.4,7.4,32,11.4,48.8,14
		c37,5.7,74,5.8,111-0.1c19.9-3.2,39.5-7.9,57.2-18.3c9.1-5.4,15.4-12.2,14.3-24.1c-0.8-8.3-0.1-16.6-0.1-25
		C382.9,368.1,382.9,351.8,382.9,334.3z M255.7,55.8c-30.9,0.3-61.9,2.8-91.6,13.4c-9.4,3.3-18.6,8.1-26.8,13.9
		c-11,7.7-10.8,17.8,0,25.8c6.5,4.8,13.8,8.8,21.3,11.7c23.4,9.3,48.1,12.9,73.1,14.5c33.8,2.2,67.3,0.4,100.2-7.6
		c14.9-3.6,29.5-8.3,42-17.8c11.5-8.7,12-18.9,0.1-27.2c-8-5.5-16.9-10.1-26-13.3C318.4,58.7,287.4,56.1,255.7,55.8z"/>
	<path class="st1" d="M382.9,226c0,28.3,0,55.9,0,83.5c0,7.1-4.7,11.6-9.9,15.3c-13.3,9.7-28.8,14.4-44.6,17.9
		c-46.2,10.2-92.5,10.2-138.8,1.4c-17.5-3.3-34.6-8.3-49.6-18.6c-7.2-4.9-11-11.1-10.9-20.4c0.4-26.1,0.2-52.3,0.2-78.6
		c0.6,0,1.2-0.3,1.5-0.1c19.5,13.5,41.8,19.3,64.7,23.2c45.1,7.6,90.2,7,135-2.7c17.9-3.9,35.3-9.6,50.6-20.2
		C381.3,226.5,381.8,226.4,382.9,226z"/>
	<path class="st2" d="M129.2,120.1c28.5,18.8,60,24.3,92.1,27.4c38.7,3.7,77.2,1.8,115.1-7.5c16.2-4,31.8-9.5,46.6-20.3
		c0,3.9,0,7,0,10c0,22.7-0.2,45.3,0,68c0.1,6.7-2.2,11.9-7.2,16.2c-9.3,7.9-20.4,12.4-31.9,15.9c-33.5,10.2-67.9,12.8-102.7,11.4
		c-22.2-0.9-44.2-3.1-65.5-9.5c-11.4-3.4-22.4-8.3-33.1-13.5c-9.3-4.6-13.9-12.2-13.5-23.4c0.7-23.3,0.2-46.6,0.2-70
		C129.2,123.5,129.2,122.2,129.2,120.1z"/>
	<path class="st3" d="M382.9,334.3c0,17.5,0,33.8,0,50.1c0,8.3-0.6,16.7,0.1,25c1.1,11.8-5.2,18.7-14.3,24.1
		c-17.7,10.4-37.2,15.1-57.2,18.3c-37,5.9-74,5.8-111,0.1c-16.8-2.6-33.3-6.5-48.8-14c-4.6-2.2-9-5-13.3-7.9
		c-6.7-4.5-9.6-10.7-9.5-19.1c0.4-23.5,0.1-47,0.1-70.5c0-1.6,0-3.3,0-4.9c0.6-0.2,1-0.4,1.2-0.3c19.4,13.2,41.5,19.3,64.3,23.1
		c49.4,8.3,98.5,7.4,147.1-5.4C356.1,349.2,369.8,343.7,382.9,334.3z"/>
	<path class="st4" d="M255.7,55.8c31.7,0.3,62.7,2.8,92.4,13.4c9.1,3.2,18.1,7.8,26,13.3c11.9,8.2,11.4,18.5-0.1,27.2
		c-12.5,9.5-27.1,14.2-42,17.8c-33,8.1-66.5,9.8-100.2,7.6c-25-1.6-49.7-5.2-73.1-14.5c-7.5-3-14.8-7-21.3-11.7
		c-10.8-8-11-18,0-25.8c8.2-5.8,17.4-10.6,26.8-13.9C193.8,58.7,224.8,56.1,255.7,55.8z M181.9,83.1c-7.1,2-13.7,3.3-19.7,5.8
		c-2.6,1.1-5.5,4.5-5.7,7.1c-0.2,2.2,2.8,5.8,5.2,6.9c14,6.5,28.4,6.7,42.4-0.2c7.4-3.6,7.2-10.5-0.5-13.7
		C196.7,86.1,189,84.9,181.9,83.1z"/>
	<path d="M181.9,83.1c7.2,1.9,14.8,3.1,21.7,6c7.7,3.2,7.9,10,0.5,13.7c-13.9,6.9-28.3,6.7-42.4,0.2c-2.4-1.1-5.4-4.7-5.2-6.9
		c0.2-2.6,3.1-6.1,5.7-7.1C168.2,86.3,174.8,85,181.9,83.1z"/>
</g>
</svg>
