<?xml version="1.0" encoding="utf-8"?>
<!-- Generator: Adobe Illustrator 24.1.2, SVG Export Plug-In . SVG Version: 6.00 Build 0)  -->
<svg version="1.1" id="barrel" xmlns="http://www.w3.org/2000/svg" xmlns:xlink="http://www.w3.org/1999/xlink" x="0px" y="0px"
	 viewBox="0 0 344.8 512" style="enable-background:new 0 0 344.8 512;" xml:space="preserve">
<style type="text/css">
	.st0{fill:none;}
	.st1{fill:url(#New_Pattern);}
	.st2{fill:#FFA938;}
	.st3{fill:#8B5F3C;}
	.st4{fill:#FEC373;}
</style>
<pattern  x="77.8" y="352" width="314.1" height="209.6" patternUnits="userSpaceOnUse" id="New_Pattern" viewBox="0 -262.1 314.1 209.6" style="overflow:visible;">
	<g>
		<rect y="-262.1" class="st0" width="314.1" height="209.6"/>
		
			<image style="overflow:visible;" width="6001" height="2003" xlink:href="3C2F1AF8.jpg"  transform="matrix(5.233333e-02 0 0 5.233333e-02 3.739987e-05 -104.8237)">
		</image>
		
			<image style="overflow:visible;" width="6001" height="2003" xlink:href="3C2F1AF9.jpg"  transform="matrix(5.233333e-02 0 0 5.233333e-02 3.739987e-05 -209.6473)">
		</image>
		
			<image style="overflow:visible;" width="6001" height="2003" xlink:href="3C2F1AFF.jpg"  transform="matrix(5.233333e-02 0 0 5.233333e-02 3.739987e-05 -314.471)">
		</image>
	</g>
</pattern>
<g>
	<path d="M5,316.3c0.5-2.4,1.3-4.3,1.2-6.1c-0.8-16.3-2.3-32.6-2.6-48.9c-0.4-20-0.6-40.1,0.3-60.1c1.1-23,3.4-46,5.5-69
		c0.8-8.6,2.8-17,4-25.5c0.4-2.8-0.3-5.7-0.4-8.3c0.9-2.2,2.2-4.4,2.7-6.7c3.1-14.9,5.9-29.9,9-44.8c0.3-1.7,1.5-3.4,2.8-4.6
		c6.5-5.9,13-11.8,19.8-17.4c1.8-1.5,4.5-2,6.9-2.6c11.5-3,23.1-5.9,34.7-8.8c23.6-5.8,47.6-9.5,71.8-9.3
		c23.3,0.2,46.6,1.6,69.8,3.8c13,1.2,25.7,5.2,38.4,8.1c1.3,0.3,2.2,2,3.3,3c-0.3,0.5-0.6,0.9-0.9,1.4c-3.6-0.9-7.2-1.9-10.9-2.8
		c-8.9-2-9-1.9-12.6,7.6c7.2,1.8,14.4,3.6,21.6,5.3c1.1,0.3,2.3,0.3,3.4,0.7c8.7,3,9.1,2.8,11.4-6.3c-2-4.3-10-0.3-10-7.8
		c12.1,3.3,23.8,6.6,34.1,13.5c5.7,3.8,8.4,9.8,9.9,15.7c4.6,19.2,8.2,38.6,12.3,57.8c1.4,6.5,3.4,12.9,4.6,19.5
		c0.5,2.6-0.6,5.4-0.4,8c1.6,19.5,3.9,38.9,4.9,58.4c1.3,23.7,2.6,47.4,2.2,71.1c-0.3,20.1-2.1,40.2-4.7,60.1
		c-3.8,29.8-8.5,59.5-13.5,89.2c-1.5,9.2-5.3,18-7.9,27c-1,3.3-1.4,6.8-2.2,10.1c-1.7,7.4-3.7,14.8-5.2,22.2
		c-1.9,9.5-9.4,12.8-16.9,15.9c-10.1,4.2-20.3,8.2-30.8,11.1c-12.5,3.4-25.4,5.8-38.2,8.1c-8.5,1.5-17.1,2.6-25.7,3
		c-13.9,0.7-27.9,1.6-41.7,0.9c-15.5-0.8-31.2-2.2-46.4-5.3c-17.5-3.5-34.9-8.2-51.6-14.3c-9.4-3.4-18.1-9.5-20.6-21.6
		c-2.8-13.5-8.2-26.5-11.8-39.8c-2.3-8.3-3.7-16.8-5.2-25.3c-3.2-19.3-6.3-38.6-9.3-58c-1.3-8.2-2.1-16.5-3.4-24.8
		C6.8,318.5,5.6,317.3,5,316.3z M143.7,30.2c2.3-2.5,4.7-5,7.3-7.8c-7.6,1-24.3,16.3-23.6,21.5c4.1-3.9,8-7.7,12-11.3
		c1.2-1.1,3-1.7,4.5-2.5c-0.9,1.1-1.8,2.3-2.7,3.3c-3.5,3.7-7,7.4-10.4,11c0.3,0.3,0.6,0.6,0.9,0.8c8.7-7.4,17.3-14.7,26-22.1
		c-0.4-0.6-0.9-1.1-1.3-1.7C152.1,24.4,147.9,27.3,143.7,30.2z M8,211c0,5.2-0.1,9,0,12.8c0.3,18.3,0.3,36.5,1.1,54.8
		c0.4,10.8,2.6,21.5,2.9,32.2c0.2,7.4,3.7,11.8,9,16.1c14,11.6,31,17,47.6,23c11.7,4.2,24,7.1,36.2,10c10.1,2.4,20.4,4.4,30.7,5.5
		c10.8,1.2,21.8,1.1,32.6,1.6c24.6,1.1,49-1.7,73-6.8c11.6-2.5,23-6.3,34.3-9.9c9.3-3,18.5-6.3,27.6-10.1c6.3-2.7,12.5-6,18.2-9.8
		c4.6-3,10.1-5.9,10.8-12.3c1-9.1,2.1-18.1,2.4-27.2c0.8-24.4,1.3-48.7,1.8-73.1c0.1-2.7-0.5-5.4-0.7-7.7
		c-51.9,24.5-106.1,35.8-162.9,36.1C115.3,246.4,60.9,234.8,8,211z M323.6,95.8c-49.5,20.7-100.1,30.8-152.7,31.2
		c-52.5,0.4-103.1-8.9-151.3-31.4c-0.4,3.6-0.8,7.4-1.3,11.1c-2.8,23.4-5.6,46.8-8.2,70.2c-0.2,1.9,0.2,4.8,1.5,5.9
		c3.3,2.9,7.1,5.6,11.1,7.4c9.8,4.2,19.7,8.3,29.9,11.5c13.1,4,26.6,7.1,39.9,10.4c2.9,0.7,6.2-0.1,9.1,0.5c4.4,0.9,8.6,2.8,13,3.5
		c6.3,0.9,12.7,0.8,19.1,1.4c7.5,0.7,15,2.6,22.4,2.5c21.2-0.5,42.4-1.4,63.6-2.9c24.4-1.8,48.3-7.3,71.5-14.9
		c12.4-4.1,24.3-9.6,36.4-14.7c4.6-2,6.9-5.2,6.1-11c-2.4-18.1-4-36.2-6.1-54.3C326.6,113.1,324.9,104.4,323.6,95.8z M17,354.2
		c0,1.8-0.2,2.9,0,4c3.7,17.9,7.4,35.9,11.3,53.8c2,9.1,4.7,18.1,6.6,27.3c1.7,8.3,4.8,15.5,12.8,19.4c2.9,1.4,6,2.4,9,3.4
		c15.3,5.2,30.3,12,46,14.9c21.3,4,43.2,5.6,64.8,6.8c20.1,1.1,40.3-0.1,60-4.5c17.1-3.8,34-8.6,50.9-13.4
		c6.5-1.9,12.8-4.7,18.9-7.7c5-2.5,10.1-5.3,11.2-11.8c0.6-3.1,1.3-6.1,2.1-9.2c2.2-9,4.7-17.9,6.7-26.9c0.7-3.2,0.7-6.5,0.9-8.5
		c4.9-15.9,6.6-31.3,10-47.7c-4.4,3.2-7.4,5.8-10.8,7.7c-24.1,12.7-49.4,22-76.1,27.1c-26.7,5.1-53.5,8.8-80.9,7.5
		c-25.4-1.2-50.4-4.7-74.9-11.6C61.3,378.2,37.9,370,17,354.2z M313.5,46.9c-4,2.2-7.4,4.7-11.2,6.1c-9.7,3.4-19.5,6.6-29.4,9.4
		c-24.3,6.8-49,11.9-74.3,12.7c-18.2,0.5-36.5,1-54.7,0.1c-14.5-0.7-28.9-3.5-43.4-5.3c-2.1-0.3-4.3-0.3-6.4-0.7
		c-8.6-2-17.1-3.8-25.6-6.1C56,59.4,42.8,57.3,32.7,47.9c-0.7-0.6-1.6-1-3.2-2c-1.3,7.2-2.6,13.8-3.6,20.4c-0.1,0.9,1.1,2.5,2,3
		c6.5,3.6,12.8,8,19.8,10.4c24.3,8.2,49,14.5,74.5,17.2c15.2,1.6,30.5,1.9,45.7,2.8c25.5,1.5,50.8-1.2,75.7-6.2
		c19.9-4,39.4-10.2,59-15.8c4.2-1.2,8.2-3.7,11.9-6.2c1.6-1.1,3.1-4,2.8-5.8C316.5,59.5,314.9,53.5,313.5,46.9z M12.8,326.5
		c0.6,4.7,0.9,9.4,1.9,14c0.6,2.8,1.6,6,3.5,7.9c4,3.9,8.3,7.9,13.2,10.5c21.4,11.2,43.8,19.5,67.5,24.8c25.9,5.7,52,8.9,78.6,8.3
		c5.6-0.1,11.3,0.1,16.9-0.4c8.7-0.9,17.5-1.9,26.1-3.6c16.1-3.1,32.5-5.6,48.1-10.4c15.9-4.9,31.1-12.1,46.3-19
		c6.4-2.9,12.8-6.9,14.5-14.7c1-4.4,1.4-8.9,1.9-13.3c0.1-0.8-0.4-1.7-0.8-3.3c-11.4,12.7-26.5,18.4-41.1,23.4
		c-19.8,6.9-39.8,13.8-61,15.6c-7.5,0.6-14.9,3-22.5,3.3c-7.3,0.3-14.3,2.9-21.8,2.1c-7.7-0.7-15.6-0.3-23.4-0.6
		c-26.6-0.8-52.8-4.6-78.3-12.2C57.9,351.6,33.2,344.5,12.8,326.5z M8.8,186.8c0,4.2,0.5,8.5-0.1,12.6c-0.9,5.5,2,8.1,6.1,10
		c17.9,8.3,36.4,15,55.5,20c27.1,7.1,54.6,11.5,82.5,12.9c27.9,1.4,55.8,0.2,83.4-4.9c16.4-3.1,32.8-6.8,48.8-11.7
		c15.5-4.8,30.4-11.3,45.4-17.5c2.2-0.9,4.9-3.8,5-6c0.4-5-0.6-10.1-1.1-15.6c-4.3,2.7-7.9,5.4-11.9,7.2
		c-18.7,8.1-38.2,13.8-58,18.8c-23,5.8-46.3,8.8-69.8,10.3c-23.2,1.5-46.4,1-69.5-2c-24.4-3.2-48.6-7.6-72-15.3
		C38.3,200.8,22.8,197.2,8.8,186.8z M319.4,73.2c-2.3,1-3.9,1.7-5.5,2.5c-3.4,1.8-6.5,4.2-10,5.3c-11.4,3.5-22.9,6.9-34.5,9.6
		c-14.8,3.5-29.7,7.3-44.8,9.2c-24.5,3-49.3,4.7-74,2.7c-17-1.4-34-3.3-50.9-6.1c-13.7-2.3-27.2-5.8-40.6-9.7
		c-11.1-3.2-22.5-6-31.8-13.5c-2.6-2.1-3.7,0.2-4.1,2.1c-0.8,3.9-0.7,8-1.8,11.8c-1,3.3,0.2,4.8,2.8,5.8
		c11.7,4.7,23.1,10.2,35.1,13.9c13.1,4.1,26.7,6.8,40.1,9.6c13.3,2.8,26.6,5.9,40.1,7c15.6,1.3,31.4,0.6,47.2,0.6
		c17.8,0,35.1-4.2,52.6-6.9c20.7-3.3,40.8-8.9,60.5-16c6.5-2.3,12.8-5.3,19-8.4c1.5-0.8,3.5-3,3.3-4.5
		C321.7,83.4,320.4,78.6,319.4,73.2z M305.5,457.8c-3.6,2.4-6,4.9-9,6c-12.4,4.5-24.9,8.8-37.5,12.9c-22.4,7.3-45.5,10.1-68.9,11.5
		c-30.2,1.8-60-0.4-89.4-7c-21.2-4.7-42.2-10.1-61.1-22.3c1.7,5.6,2.5,12.6,6.4,16.2c6.1,5.5,13.9,10.2,21.8,12.6
		c16.9,5.1,34.4,8.4,51.6,12.6c18.3,4.5,37,4.4,55.5,4.2c23.6-0.3,47.1-2.1,70-8.5c14.7-4.2,29.2-8.8,43.7-13.5
		C299.7,478.8,304.1,469.8,305.5,457.8z M209.7,38.5c-0.1,0-0.1,0-0.2,0c0-3.8,0-7.6,0-11.5c0-3-1-4.3-4.4-4.4
		c-10.5-0.2-21-0.8-31.5-1.4c-2.7-0.2-3.6,0.9-3.5,3.4c0.2,3.8,0.4,7.6,0.4,11.4c0.1,11.1,0.1,22.2,0,33.3c0,2.7,0.7,4,3.7,3.8
		c11.2-0.6,22.5-0.9,33.7-1.5c2.9-0.1,3.6-1.9,3.4-4.8C210.5,57.4,210.2,47.9,209.7,38.5z M214.2,70.9c5-0.7,9.1-1.1,13.2-1.8
		c4.1-0.6,8.1-1.8,12.2-2.1c3.7-0.3,4.9-1.9,4.8-5.3c0-6.6,0.3-13.3,0-19.9c-0.9-16.2,2.6-13-12.8-16c-6.4-1.3-13-1.5-19.9-2.3
		C212.7,39.8,213.4,55.1,214.2,70.9z M164,55c0.3,0.4,0.7,0.7,1,1.1c-5.4,5.2-10.9,10.3-16.6,15.8c4.6,2.1,7.4,2.4,9.4-2.1
		c1-2.3,3.6-3.8,5.5-5.7c0.3,0.3,0.5,0.5,0.8,0.8c-1.9,2.5-3.7,5-5.7,7.7c7.1,2.3,9.3,1.4,9.3-3.1c0-11.1-0.1-22.3-0.2-33.4
		c0-2.8-0.4-5.6-0.7-9.3c-7,6-13.2,11-19.1,16.2c-6.6,5.8-13.2,11.6-19.2,17.9c-1.8,1.9-2.3,5.7-2.2,8.6c0,0.9,3.9,2.1,6.2,2.5
		c3.6,0.6,7.3,1,10.9,0.9c1.4,0,3.2-1.2,4-2.4C151.8,63.8,157.9,59.4,164,55z M247,66.1c10.2-2.6,19.5-4.8,28.6-7.4
		c1.2-0.3,2.1-3.1,2.2-4.9c0.3-4.4,0.1-8.9-0.2-13.3c-0.1-1.3-0.9-3.3-1.9-3.6c-9.3-3.1-18.6-5.9-28.8-9C247,41.3,247,53.2,247,66.1
		z M153.1,18.5c0,0.2,0,0.4,0,0.5c3.1-0.3,6.3-0.9,9.4-0.9c3.9,0,5.2-1.3,5.1-5.3c-0.1-4.1-1.7-5.3-5.4-5
		c-11.8,0.8-23.5,1.5-35.3,2.4c-0.9,0.1-2.4,0.9-2.6,1.7c-1.3,3.6,3,8.6,6.9,8.3C138.6,19.7,145.8,19.1,153.1,18.5z M202,18
		c9.2,1.2,9.5,1,11.3-4.8c0.9-2.9,0.1-4.1-2.8-4.2c-11.9-0.4-23.8-0.7-35.6-1.2c-3.4-0.2-5.3,0.3-5.2,4.4c0.1,3.6,0.4,6,5,5.9
		C183.8,17.8,192.9,18,202,18z M83.1,18.5c0.7,1.9,1.1,2.8,1.3,3.8c1.1,4.9,3.6,5.9,8.5,4.6c8.8-2.2,17.8-3.5,26.8-5
		c2.4-0.4,4.8-1,3.6-3.9c-1.1-2.5,0.2-7.4-5.4-6.4c-7.2,1.3-14.4,2.3-21.5,3.6C92.1,16.2,87.9,17.4,83.1,18.5z M43.9,31
		c5.6,9.2,6.2,9.3,14.2,5.8c5.1-2.3,10.5-4.1,15.8-6c3.1-1.1,6.2-2.1,9.3-3.1c-1.8-7.7-2.8-8.4-9.8-6.5c-6.6,1.8-13.1,3.7-19.6,5.7
		C50.6,28,47.5,29.6,43.9,31z M283.2,34c6.8,4.6,13.7,9.5,20.7,14.1c0.8,0.5,2.6,0.3,3.5-0.2c5.3-2.7,5.6-9.5,0.5-13.1
		c-3.5-2.4-7.4-4.6-11.4-6.2c-8.6-3.6-8.7-3.5-13.3,4.6C283.2,33.3,283.2,33.5,283.2,34z M213.3,19.9c9.5,1.4,18.5,2.6,27.5,4.2
		c3.5,0.6,5.8,0.1,6.9-3.6c0.4-1.5,1.3-2.9,2.4-5.1c-9.7-1.6-18.8-2.8-27.8-4.6c-4.1-0.9-5.8,0.7-7,4.1
		C214.7,16.2,214.2,17.6,213.3,19.9z M280.8,37.5c0,6.9-0.1,11.8,0.1,16.7c0,0.9,1.8,2.7,2.3,2.5c5.4-1.5,10.7-3.2,16.1-4.9
		c0.1-0.7,0.1-1.5,0.2-2.2C293.6,45.8,287.7,42,280.8,37.5z M125.5,57.7c0.3,0.2,0.7,0.5,1,0.7c6.4-5.7,12.6-11.6,19.2-17
		c6.1-5.1,12.5-9.8,18.8-14.7c1.2-0.9,2.2-2.1,3.2-3.3c0.1-0.1-1.2-1.9-1.8-1.8c-1.7,0.1-3.8,0.2-5,1.2c-7.6,6.5-15.1,13.2-22.5,20
		C133.4,47.2,128.5,51.7,125.5,57.7z M37.7,47.6c1.7-1.3,3.3-2.2,4.5-3.4c1.3-1.3,3.6-3.3,3.3-4.1c-0.9-2.3-2.6-4.6-4.6-6
		c-0.7-0.5-3.4,1.8-5,3c-0.9,0.7-1.7,1.6-2.2,2.7c-0.5,1.3-1.3,3.2-0.7,4C34,45.3,35.9,46.2,37.7,47.6z M93.4,64.7
		c0.4,0.4,0.9,0.8,1.3,1.2c9.8-11.3,19.6-22.6,29.4-33.9c-0.4-0.3-0.7-0.6-1.1-0.9C112.2,41.4,102.2,52.5,93.4,64.7z M98.8,64.6
		c0.6,0.5,1.1,1,1.7,1.6c3.9-4.5,7.9-9.1,11.9-13.6c3.8-4.4,7.8-8.7,11.6-13c-0.7-0.6-1.5-1.3-2.2-1.9
		C114.1,46.7,106.5,55.6,98.8,64.6z M93,56.7c0.6,0.5,1.2,1,1.8,1.5c4.9-5.9,9.8-11.8,14.7-17.8c-0.4-0.4-0.9-0.8-1.3-1.1
		C103.1,45.2,98,50.9,93,56.7z M122.9,53.7c-0.3-0.3-0.7-0.6-1-0.9c-4.7,4.3-10.5,7.7-11.7,15C114.4,63.2,118.6,58.5,122.9,53.7z
		 M123.2,60.2c-0.5-0.5-1.1-1.1-1.6-1.6c-2.8,3.1-5.7,6.2-8.5,9.3c0.6,0.5,1.2,1.1,1.7,1.6C117.6,66.4,120.4,63.3,123.2,60.2z
		 M123.9,46.9c-0.5-0.4-1-0.9-1.5-1.3c-3.6,3.6-7.2,7.2-10.8,10.7c0.3,0.2,0.5,0.5,0.8,0.7C116.3,53.7,120.1,50.3,123.9,46.9z"/>
	<path id="middle_x5F_part" class="st1" d="M8,211c52.9,23.9,107.3,35.5,164.4,35.1c56.8-0.3,111-11.6,162.9-36.1
		c0.2,2.3,0.8,5,0.7,7.7c-0.5,24.4-1,48.8-1.8,73.1c-0.3,9.1-1.4,18.2-2.4,27.2c-0.7,6.4-6.2,9.3-10.8,12.3
		c-5.7,3.8-11.9,7.1-18.2,9.8c-9,3.8-18.2,7.1-27.6,10.1c-11.3,3.6-22.7,7.5-34.3,9.9c-24,5.1-48.3,7.9-73,6.8
		c-10.9-0.5-21.8-0.4-32.6-1.6c-10.3-1.1-20.6-3.2-30.7-5.5c-12.2-2.9-24.5-5.7-36.2-10c-16.6-6-33.6-11.4-47.6-23
		c-5.2-4.3-8.8-8.7-9-16.1c-0.3-10.8-2.4-21.5-2.9-32.2c-0.7-18.2-0.8-36.5-1.1-54.8C8,220,8,216.2,8,211z"/>
	<path id="upper_x5F_part" class="st1" d="M323.6,95.8c1.3,8.6,3,17.3,4.1,26.1c2.2,18.1,3.8,36.3,6.1,54.3c0.8,5.8-1.6,9.1-6.1,11
		c-12,5.1-24,10.7-36.4,14.7c-23.2,7.6-47.1,13-71.5,14.9c-21.1,1.6-42.4,2.4-63.6,2.9c-7.5,0.2-14.9-1.7-22.4-2.5
		c-6.4-0.6-12.8-0.5-19.1-1.4c-4.4-0.6-8.6-2.6-13-3.5c-3-0.6-6.2,0.2-9.1-0.5c-13.4-3.2-26.8-6.4-39.9-10.4
		c-10.2-3.1-20.1-7.3-29.9-11.5c-4-1.7-7.7-4.5-11.1-7.4c-1.3-1.1-1.7-3.9-1.5-5.9c2.6-23.4,5.4-46.8,8.2-70.2
		c0.4-3.8,0.9-7.5,1.3-11.1c48.3,22.5,98.8,31.8,151.3,31.4C223.5,126.7,274.1,116.6,323.6,95.8z"/>
	<path id="downer_x5F_part" class="st1" d="M17,354.2c20.9,15.9,44.3,24,68.3,30.8c24.5,6.9,49.5,10.4,74.9,11.6
		c27.3,1.3,54.2-2.4,80.9-7.5c26.8-5.1,52.1-14.4,76.1-27.1c3.4-1.8,6.4-4.5,10.8-7.7c-3.4,16.4-5.1,31.8-10,47.7
		c-0.2,2-0.1,5.3-0.9,8.5c-2.1,9-4.5,17.9-6.7,26.9c-0.8,3-1.5,6.1-2.1,9.2c-1.2,6.4-6.2,9.3-11.2,11.8c-6.1,3-12.4,5.8-18.9,7.7
		c-16.9,4.8-33.8,9.6-50.9,13.4c-19.7,4.4-39.9,5.6-60,4.5c-21.7-1.2-43.5-2.9-64.8-6.8c-15.7-2.9-30.7-9.8-46-14.9
		c-3-1-6.2-2-9-3.4c-8-4-11.1-11.1-12.8-19.4c-1.8-9.2-4.6-18.2-6.6-27.3c-3.9-17.9-7.6-35.8-11.3-53.8
		C16.8,357.1,17,355.9,17,354.2z"/>
	<path class="st2" d="M313.5,46.9c1.4,6.5,3.1,12.6,3.9,18.8c0.2,1.8-1.2,4.7-2.8,5.8c-3.7,2.5-7.7,5-11.9,6.2
		c-19.6,5.6-39.1,11.8-59,15.8c-24.9,5-50.2,7.7-75.7,6.2c-15.2-0.9-30.5-1.2-45.7-2.8C96.7,94.2,72,87.8,47.7,79.7
		c-7-2.3-13.3-6.7-19.8-10.4c-1-0.5-2.2-2.1-2-3c1-6.6,2.3-13.2,3.6-20.4c1.6,1,2.6,1.4,3.2,2C42.8,57.3,56,59.4,68.6,63
		c8.4,2.4,17,4.2,25.6,6.1c2.1,0.5,4.3,0.5,6.4,0.7c14.5,1.8,28.9,4.6,43.4,5.3c18.2,0.9,36.5,0.4,54.7-0.1
		c25.3-0.8,50-5.8,74.3-12.7c9.9-2.8,19.7-5.9,29.4-9.4C306.1,51.7,309.5,49.2,313.5,46.9z"/>
	<path class="st3" d="M12.8,326.5c20.4,18.1,45.1,25.2,69.5,32.5c25.5,7.6,51.7,11.4,78.3,12.2c7.8,0.2,15.6-0.2,23.4,0.6
		c7.5,0.7,14.5-1.8,21.8-2.1c7.5-0.3,14.9-2.7,22.5-3.3c21.2-1.8,41.2-8.7,61-15.6c14.6-5.1,29.7-10.8,41.1-23.4
		c0.4,1.6,0.9,2.5,0.8,3.3c-0.5,4.4-1,8.9-1.9,13.3c-1.7,7.8-8.2,11.8-14.5,14.7c-15.2,6.9-30.4,14-46.3,19
		c-15.6,4.8-32,7.3-48.1,10.4c-8.6,1.7-17.3,2.7-26.1,3.6c-5.6,0.6-11.3,0.3-16.9,0.4c-26.6,0.6-52.7-2.6-78.6-8.3
		c-23.6-5.2-46.1-13.6-67.5-24.8c-4.9-2.6-9.2-6.6-13.2-10.5c-1.9-1.9-2.9-5.1-3.5-7.9C13.7,335.9,13.4,331.1,12.8,326.5z"/>
	<path class="st3" d="M8.8,186.8c14,10.5,29.5,14.1,44.4,18.9c23.4,7.6,47.6,12.1,72,15.3c23.1,3,46.3,3.5,69.5,2
		c23.5-1.5,46.8-4.5,69.8-10.3c19.8-5,39.3-10.7,58-18.8c4-1.7,7.6-4.5,11.9-7.2c0.5,5.6,1.5,10.7,1.1,15.6c-0.2,2.2-2.8,5.1-5,6
		c-15,6.1-30,12.7-45.4,17.5c-16,4.9-32.4,8.7-48.8,11.7c-27.5,5.1-55.4,6.2-83.4,4.9c-27.9-1.4-55.4-5.8-82.5-12.9
		c-19.1-5-37.6-11.7-55.5-20c-4.2-1.9-7-4.5-6.1-10C9.3,195.3,8.8,191,8.8,186.8z"/>
	<path class="st3" d="M319.4,73.2c1,5.5,2.3,10.2,2.7,15.1c0.1,1.4-1.8,3.7-3.3,4.5c-6.2,3.1-12.5,6.1-19,8.4
		c-19.7,7.1-39.8,12.7-60.5,16c-17.5,2.8-34.8,6.9-52.6,6.9c-15.7,0-31.5,0.7-47.2-0.6c-13.5-1.1-26.8-4.2-40.1-7
		c-13.5-2.8-27-5.5-40.1-9.6c-12-3.7-23.4-9.2-35.1-13.9c-2.6-1.1-3.7-2.6-2.8-5.8c1.1-3.8,1-7.9,1.8-11.8c0.4-2,1.5-4.2,4.1-2.1
		c9.3,7.5,20.7,10.4,31.8,13.5c13.4,3.8,26.9,7.4,40.6,9.7c16.8,2.8,33.9,4.8,50.9,6.1c24.7,2,49.5,0.3,74-2.7
		c15.1-1.9,30-5.7,44.8-9.2c11.6-2.7,23.1-6.1,34.5-9.6c3.5-1.1,6.7-3.5,10-5.3C315.5,74.9,317.1,74.2,319.4,73.2z"/>
	<path class="st3" d="M305.5,457.8c-1.4,12-5.7,21-17,24.7c-14.5,4.7-29,9.4-43.7,13.5c-22.8,6.5-46.4,8.3-70,8.5
		c-18.6,0.2-37.2,0.3-55.5-4.2c-17.2-4.3-34.7-7.5-51.6-12.6c-7.9-2.4-15.7-7-21.8-12.6c-3.9-3.5-4.6-10.5-6.4-16.2
		c18.9,12.2,40,17.6,61.1,22.3c29.5,6.5,59.3,8.8,89.4,7c23.4-1.4,46.5-4.3,68.9-11.5c12.6-4.1,25.1-8.4,37.5-12.9
		C299.4,462.7,301.9,460.2,305.5,457.8z"/>
	<path class="st4" d="M209.7,38.5c0.5,9.4,0.9,18.9,1.6,28.3c0.2,2.9-0.5,4.7-3.4,4.8c-11.2,0.6-22.5,0.9-33.7,1.5
		c-3,0.2-3.7-1.1-3.7-3.8c0.1-11.1,0-22.2,0-33.3c0-3.8-0.2-7.6-0.4-11.4c-0.1-2.5,0.8-3.5,3.5-3.4c10.5,0.6,21,1.2,31.5,1.4
		c3.4,0.1,4.4,1.4,4.4,4.4c-0.1,3.8,0,7.6,0,11.5C209.5,38.5,209.6,38.5,209.7,38.5z"/>
	<path class="st4" d="M214.2,70.9c-0.8-15.8-1.6-31.1-2.4-47.4c6.9,0.8,13.5,1,19.9,2.3c15.4,3,11.9-0.2,12.8,16
		c0.4,6.6,0,13.3,0,19.9c0,3.3-1.2,5-4.8,5.3c-4.1,0.3-8.1,1.5-12.2,2.1C223.4,69.8,219.2,70.2,214.2,70.9z"/>
	<path class="st4" d="M164,55c-6.1,4.4-12.2,8.8-16.6,15.4c-0.8,1.2-2.6,2.4-4,2.4c-3.6,0.1-7.3-0.3-10.9-0.9
		c-2.2-0.4-6.1-1.5-6.2-2.5c-0.1-2.9,0.4-6.6,2.2-8.6c6-6.3,12.7-12.1,19.2-17.9c5.9-5.2,12.1-10.3,19.1-16.2
		c0.3,3.8,0.7,6.5,0.7,9.3c0.1,11.1,0.2,22.3,0.2,33.4c0,4.6-2.2,5.4-9.3,3.1c2-2.7,3.8-5.2,5.7-7.7c-0.3-0.3-0.5-0.5-0.8-0.8
		c-1.9,1.9-4.5,3.4-5.5,5.7c-2,4.4-4.8,4.1-9.4,2.1c5.8-5.5,11.2-10.6,16.6-15.8C164.7,55.7,164.3,55.3,164,55z M130.6,69
		c9.9-9.2,19.8-18.5,29.7-27.7C148.8,48.8,138,57.1,130.6,69z M139.5,66.6c0.5,0.5,0.9,1,1.4,1.5c6.6-5.9,13.1-11.8,19.7-17.6
		c-0.3-0.4-0.7-0.8-1-1.1C152.9,55.1,146.2,60.8,139.5,66.6z"/>
	<path class="st4" d="M247,66.1c0-12.9,0-24.8,0-38.3c10.2,3.1,19.5,6,28.8,9c0.9,0.3,1.8,2.3,1.9,3.6c0.3,4.4,0.4,8.9,0.2,13.3
		c-0.1,1.7-1.1,4.5-2.2,4.9C266.5,61.3,257.2,63.5,247,66.1z"/>
	<path class="st2" d="M153.1,18.5c-7.3,0.6-14.5,1.1-21.8,1.7c-3.9,0.3-8.2-4.8-6.9-8.3c0.3-0.8,1.7-1.6,2.6-1.7
		c11.7-0.9,23.5-1.6,35.3-2.4c3.7-0.3,5.3,1,5.4,5c0.1,4-1.3,5.3-5.1,5.3c-3.1,0-6.3,0.6-9.4,0.9C153.1,18.9,153.1,18.7,153.1,18.5z
		"/>
	<path class="st2" d="M202,18c-9.1,0-18.2-0.2-27.3,0.1c-4.6,0.1-4.9-2.2-5-5.9c-0.1-4.1,1.7-4.5,5.2-4.4
		c11.9,0.6,23.8,0.8,35.6,1.2c2.9,0.1,3.8,1.3,2.8,4.2C211.5,19,211.3,19.2,202,18z"/>
	<path class="st2" d="M83.1,18.5c4.7-1.1,9-2.3,13.3-3.2c7.2-1.3,14.4-2.3,21.5-3.6c5.6-1,4.3,3.9,5.4,6.4c1.2,2.8-1.2,3.4-3.6,3.9
		c-9,1.5-18,2.8-26.8,5c-5,1.3-7.5,0.3-8.5-4.6C84.2,21.4,83.8,20.4,83.1,18.5z"/>
	<path class="st2" d="M43.9,31c3.5-1.5,6.6-3,9.9-4c6.5-2.1,13-3.9,19.6-5.7c7-1.9,8-1.2,9.8,6.5c-3.1,1-6.2,1.9-9.3,3.1
		c-5.3,1.9-10.6,3.7-15.8,6C50.1,40.3,49.6,40.2,43.9,31z"/>
	<path class="st2" d="M283.2,34c0-0.5,0-0.7,0.1-0.8c4.7-8,4.7-8.2,13.3-4.6c4,1.7,7.8,3.8,11.4,6.2c5.1,3.5,4.7,10.4-0.5,13.1
		c-1,0.5-2.7,0.7-3.5,0.2C296.9,43.5,290,38.7,283.2,34z"/>
	<path class="st2" d="M213.3,19.9c0.8-2.3,1.3-3.7,1.8-5.1c1.2-3.4,2.9-4.9,7-4.1c9,1.9,18.2,3.1,27.8,4.6c-1,2.2-1.9,3.6-2.4,5.1
		c-1,3.7-3.3,4.2-6.9,3.6C231.9,22.5,222.9,21.3,213.3,19.9z"/>
	<path class="st4" d="M280.8,37.5c7,4.5,12.8,8.3,18.7,12.1c-0.1,0.7-0.1,1.5-0.2,2.2c-5.3,1.7-10.7,3.5-16.1,4.9
		c-0.5,0.1-2.2-1.6-2.3-2.5C280.6,49.4,280.8,44.5,280.8,37.5z"/>
	<path class="st4" d="M125.5,57.7c3.1-5.9,7.9-10.5,12.8-15c7.4-6.8,14.9-13.5,22.5-20c1.2-1,3.3-1.1,5-1.2c0.6,0,1.8,1.7,1.8,1.8
		c-0.9,1.2-2,2.3-3.2,3.3c-6.2,4.9-12.7,9.6-18.8,14.7c-6.5,5.5-12.8,11.3-19.2,17C126.2,58.2,125.8,57.9,125.5,57.7z"/>
	<path class="st2" d="M37.7,47.6c-1.8-1.4-3.7-2.3-4.7-3.9c-0.5-0.8,0.2-2.7,0.7-4c0.4-1,1.3-2,2.2-2.7c1.6-1.2,4.3-3.5,5-3
		c2,1.3,3.8,3.7,4.6,6c0.3,0.9-2,2.9-3.3,4.1C41,45.4,39.4,46.3,37.7,47.6z"/>
	<path class="st4" d="M93.4,64.7c8.8-12.2,18.8-23.3,29.7-33.6c0.4,0.3,0.7,0.6,1.1,0.9c-9.8,11.3-19.6,22.6-29.4,33.9
		C94.3,65.5,93.8,65.1,93.4,64.7z"/>
	<path class="st4" d="M143.7,30.2c4.2-2.9,8.4-5.8,12.6-8.7c0.4,0.6,0.9,1.1,1.3,1.7c-8.7,7.4-17.3,14.7-26,22.1
		c-0.3-0.3-0.6-0.6-0.9-0.8c3.5-3.7,7-7.3,10.4-11c1-1,1.8-2.2,2.7-3.3C143.9,30.1,143.7,30.2,143.7,30.2z"/>
	<path class="st4" d="M98.8,64.6c7.7-9,15.3-18,23-27c0.7,0.6,1.5,1.3,2.2,1.9c-3.9,4.3-7.8,8.7-11.6,13c-4,4.5-7.9,9.1-11.9,13.6
		C99.9,65.7,99.4,65.2,98.8,64.6z"/>
	<path class="st4" d="M143.9,30.1c-1.5,0.8-3.2,1.4-4.5,2.5c-4,3.6-7.9,7.4-12,11.3c-0.7-5.2,16-20.5,23.6-21.5
		c-2.6,2.8-4.9,5.3-7.3,7.8C143.7,30.2,143.9,30.1,143.9,30.1z"/>
	<path class="st4" d="M93,56.7c5-5.8,10.1-11.6,15.1-17.3c0.4,0.4,0.9,0.8,1.3,1.1c-4.9,5.9-9.8,11.8-14.7,17.8
		C94.2,57.8,93.6,57.2,93,56.7z"/>
	<path class="st4" d="M122.9,53.7c-4.2,4.7-8.5,9.4-12.7,14.1c1.3-7.4,7.1-10.7,11.7-15C122.2,53.2,122.5,53.5,122.9,53.7z"/>
	<path class="st4" d="M123.2,60.2c-2.8,3.1-5.6,6.2-8.4,9.3c-0.6-0.5-1.2-1.1-1.7-1.6c2.8-3.1,5.7-6.2,8.5-9.3
		C122.1,59.2,122.6,59.7,123.2,60.2z"/>
	<path class="st4" d="M123.9,46.9c-3.8,3.4-7.7,6.8-11.5,10.2c-0.3-0.2-0.5-0.5-0.8-0.7c3.6-3.6,7.2-7.2,10.8-10.7
		C122.9,46,123.4,46.5,123.9,46.9z"/>
	<path d="M130.6,69c7.4-11.9,18.2-20.2,29.7-27.7C150.4,50.5,140.5,59.8,130.6,69z"/>
	<path d="M139.5,66.6c6.7-5.8,13.4-11.5,20-17.3c0.3,0.4,0.7,0.8,1,1.1c-6.6,5.9-13.1,11.8-19.7,17.6
		C140.4,67.6,140,67.1,139.5,66.6z"/>
	<path class="st2" d="M281.6,22.9L258,17.1c0,0-3.4-1-4.8-0.4c-1.3,0.6-1.4-0.2-3.2,3.3c-1.8,3.6-2.1,5.2-2.1,5.2l30.5,7.6
		c0,0,2.9,0.9,3.9-1.7s1.9-6.2,1.9-6.2S283.5,23,281.6,22.9z"/>
	<polygon points="269.4,16.2 274.3,17.2 276.8,21.7 271.4,20.5 269.4,16.4 	"/>
</g>
</svg>
